<svg width="713" height="578" viewBox="0 0 713 578" fill="none" xmlns="http://www.w3.org/2000/svg">
<path d="M240.578 84.9904C242.599 66.2011 267.147 60.4377 277.319 76.3643L288.303 93.5637C292.459 100.071 299.99 103.605 307.652 102.643L330.689 99.7488C347.143 97.6819 358.82 115.386 350.441 129.697L333.918 157.922C330.661 163.485 330.285 170.276 332.908 176.165L345.418 204.246C352.792 220.799 336.114 237.84 319.406 230.825L304.836 224.707C296.85 221.354 287.613 223.523 281.953 230.08L271.628 242.043C259.788 255.76 237.268 247.922 236.505 229.817L235.211 199.102C234.939 192.662 231.58 186.747 226.188 183.215L198.83 165.293C184.958 156.206 187.536 135.155 203.191 129.683L225.109 122.022C232.398 119.475 237.569 112.959 238.395 105.281L240.578 84.9904Z" fill="#E98C20"/>
<path d="M444.444 67.6047C453.158 50.6131 478.455 54.3325 481.91 73.1133L484.797 88.8106C486.203 96.4506 491.905 102.586 499.422 104.545L518.682 109.567C534.557 113.705 538.972 134.143 526.22 144.465L502.366 163.775C497.475 167.734 494.732 173.765 494.963 180.054L495.989 207.999C496.658 226.2 474.632 235.749 461.805 222.819L454.039 214.991C447.78 208.682 438.108 207.26 430.298 211.501L420.608 216.762C404.602 225.452 386.257 209.968 392.136 192.73L401.162 166.263C403.193 160.306 402.303 153.741 398.758 148.541L381.471 123.183C372.231 109.628 382.341 91.3252 398.735 91.931L418.626 92.6661C426.389 92.9529 433.615 88.7188 437.16 81.8066L444.444 67.6047Z" fill="#E98C20"/>
<path d="M585.56 220.725C601.167 208.907 622.704 224.23 616.655 242.849L614.626 249.093C612.194 256.582 614.381 264.802 620.215 270.09L630.376 279.302C642.201 290.023 637.321 309.595 621.847 313.509L595.062 320.283C589.324 321.735 584.524 325.652 581.952 330.983L572.071 351.466C564.051 368.091 539.712 365.904 534.784 348.115L534.512 347.135C531.985 338.013 523.41 331.912 513.964 332.515L512.949 332.58C494.528 333.755 484.483 311.477 497.56 298.451L513.672 282.401C517.865 278.224 519.993 272.405 519.483 266.509L517.103 238.983C515.728 223.081 532.619 212.054 546.623 219.712L558.657 226.292C565.566 230.069 574.048 229.442 580.326 224.688L585.56 220.725Z" fill="#E98C20"/>
<path d="M100.523 248.892C94.6093 230.597 115.398 215.31 131.098 226.409L142.162 234.23C148.53 238.731 156.934 239.121 163.691 235.228L179.5 226.12C193.611 217.991 211.004 229.233 209.385 245.438L206.411 275.21C205.795 281.37 208.068 287.468 212.565 291.724L231.943 310.063C245.218 322.626 236.076 344.945 217.803 344.586L209.422 344.421C200.383 344.243 192.349 350.151 189.824 358.832L187.483 366.881C182.38 384.431 158.35 386.505 150.315 370.088L138.586 346.124C135.864 340.563 130.721 336.577 124.657 335.328L95.352 329.292C79.4013 326.007 73.8541 306.054 85.8204 295.008L99.2266 282.632C104.957 277.342 107.089 269.205 104.691 261.785L100.523 248.892Z" fill="#E98C20"/>
<path d="M374.753 305.902C429.119 311.009 448.073 322.666 491.38 383.376C506.969 405.23 516.352 424.948 521.77 442.039C534.356 481.742 493.43 503.427 452.657 494.922C427.692 489.715 399.628 485.442 374.753 485.442C343.925 485.442 307.376 500.588 274.809 518.602C243.759 535.777 200.773 509.079 207.355 474.211C207.355 474.211 226.652 405.054 248.642 372.877C270.633 340.7 320.388 300.794 374.753 305.902Z" fill="#E98C20"/>
</svg>
